<svg aria-roledescription="pie" role="graphics-document document" style="max-width: 678.766px; background-color: transparent;" viewBox="0 0 678.765625 450" xmlns:xlink="http://www.w3.org/1999/xlink" xmlns="http://www.w3.org/2000/svg" width="100%" id="my-svg"><style>#my-svg{font-family:"trebuchet ms",verdana,arial,sans-serif;font-size:16px;fill:#333;}#my-svg .error-icon{fill:#552222;}#my-svg .error-text{fill:#552222;stroke:#552222;}#my-svg .edge-thickness-normal{stroke-width:2px;}#my-svg .edge-thickness-thick{stroke-width:3.5px;}#my-svg .edge-pattern-solid{stroke-dasharray:0;}#my-svg .edge-pattern-dashed{stroke-dasharray:3;}#my-svg .edge-pattern-dotted{stroke-dasharray:2;}#my-svg .marker{fill:#333333;stroke:#333333;}#my-svg .marker.cross{stroke:#333333;}#my-svg svg{font-family:"trebuchet ms",verdana,arial,sans-serif;font-size:16px;}#my-svg .pieCircle{stroke:black;stroke-width:2px;opacity:0.7;}#my-svg .pieOuterCircle{stroke:black;stroke-width:2px;fill:none;}#my-svg .pieTitleText{text-anchor:middle;font-size:25px;fill:black;font-family:"trebuchet ms",verdana,arial,sans-serif;}#my-svg .slice{font-family:"trebuchet ms",verdana,arial,sans-serif;fill:#333;font-size:17px;}#my-svg .legend text{fill:black;font-family:"trebuchet ms",verdana,arial,sans-serif;font-size:17px;}#my-svg :root{--mermaid-font-family:"trebuchet ms",verdana,arial,sans-serif;}</style><g/><g transform="translate(225,225)"><circle class="pieOuterCircle" r="186" cy="0" cx="0"/><path class="pieCircle" fill="#ECECFF" d="M0,-185A185,185,0,0,1,57.168,175.945L0,0Z"/><path class="pieCircle" fill="#ffffde" d="M57.168,175.945A185,185,0,0,1,-175.945,57.168L0,0Z"/><path class="pieCircle" fill="hsl(80, 100%, 56.2745098039%)" d="M-175.945,57.168A185,185,0,0,1,-149.668,-108.74L0,0Z"/><path class="pieCircle" fill="hsl(240, 100%, 86.2745098039%)" d="M-149.668,-108.74A185,185,0,0,1,-57.168,-175.945L0,0Z"/><path class="pieCircle" fill="hsl(60, 100%, 63.5294117647%)" d="M-57.168,-175.945A185,185,0,0,1,0,-185L0,0Z"/><text style="text-anchor: middle;" class="slice" transform="translate(137.04175725757537,-21.705282024332003)">45%</text><text style="text-anchor: middle;" class="slice" transform="translate(-62.99118183886222,123.62715523113599)">25%</text><text style="text-anchor: middle;" class="slice" transform="translate(-137.04175725757534,-21.70528202433214)">15%</text><text style="text-anchor: middle;" class="slice" transform="translate(-81.55520375558056,-112.25110796952401)">10%</text><text style="text-anchor: middle;" class="slice" transform="translate(-21.705282024331936,-137.04175725757537)">5%</text><text class="pieTitleText" y="-200" x="0">Technology Stack 2024</text><g transform="translate(216,-55)" class="legend"><rect style="fill: rgb(236, 236, 255); stroke: rgb(236, 236, 255);" height="18" width="18"/><text y="14" x="22">JavaScript/TypeScript</text></g><g transform="translate(216,-33)" class="legend"><rect style="fill: rgb(255, 255, 222); stroke: rgb(255, 255, 222);" height="18" width="18"/><text y="14" x="22">Python</text></g><g transform="translate(216,-11)" class="legend"><rect style="fill: rgb(181, 255, 32); stroke: rgb(181, 255, 32);" height="18" width="18"/><text y="14" x="22">Rust</text></g><g transform="translate(216,11)" class="legend"><rect style="fill: rgb(185, 185, 255); stroke: rgb(185, 185, 255);" height="18" width="18"/><text y="14" x="22">SQL</text></g><g transform="translate(216,33)" class="legend"><rect style="fill: rgb(255, 255, 69); stroke: rgb(255, 255, 69);" height="18" width="18"/><text y="14" x="22">Other</text></g></g></svg>