<svg aria-roledescription="er" role="graphics-document document" viewBox="0 0 429.9765625 598" style="max-width: 429.977px; background-color: transparent;" xmlns:xlink="http://www.w3.org/1999/xlink" xmlns="http://www.w3.org/2000/svg" width="100%" id="my-svg"><style>#my-svg{font-family:"trebuchet ms",verdana,arial,sans-serif;font-size:16px;fill:#333;}#my-svg .error-icon{fill:#552222;}#my-svg .error-text{fill:#552222;stroke:#552222;}#my-svg .edge-thickness-normal{stroke-width:2px;}#my-svg .edge-thickness-thick{stroke-width:3.5px;}#my-svg .edge-pattern-solid{stroke-dasharray:0;}#my-svg .edge-pattern-dashed{stroke-dasharray:3;}#my-svg .edge-pattern-dotted{stroke-dasharray:2;}#my-svg .marker{fill:#333333;stroke:#333333;}#my-svg .marker.cross{stroke:#333333;}#my-svg svg{font-family:"trebuchet ms",verdana,arial,sans-serif;font-size:16px;}#my-svg .entityBox{fill:#ECECFF;stroke:#9370DB;}#my-svg .attributeBoxOdd{fill:#ffffff;stroke:#9370DB;}#my-svg .attributeBoxEven{fill:#f2f2f2;stroke:#9370DB;}#my-svg .relationshipLabelBox{fill:hsl(80, 100%, 96.2745098039%);opacity:0.7;background-color:hsl(80, 100%, 96.2745098039%);}#my-svg .relationshipLabelBox rect{opacity:0.5;}#my-svg .relationshipLine{stroke:#333333;}#my-svg .entityTitleText{text-anchor:middle;font-size:18px;fill:#333;}#my-svg #MD_PARENT_START{fill:#f5f5f5!important;stroke:#333333!important;stroke-width:1;}#my-svg #MD_PARENT_END{fill:#f5f5f5!important;stroke:#333333!important;stroke-width:1;}#my-svg :root{--mermaid-font-family:"trebuchet ms",verdana,arial,sans-serif;}</style><g/><defs><marker orient="auto" markerHeight="240" markerWidth="190" refY="7" refX="0" id="MD_PARENT_START"><path d="M 18,7 L9,13 L1,7 L9,1 Z"/></marker></defs><defs><marker orient="auto" markerHeight="28" markerWidth="20" refY="7" refX="19" id="MD_PARENT_END"><path d="M 18,7 L9,13 L1,7 L9,1 Z"/></marker></defs><defs><marker orient="auto" markerHeight="18" markerWidth="18" refY="9" refX="0" id="ONLY_ONE_START"><path d="M9,0 L9,18 M15,0 L15,18" fill="none" stroke="gray"/></marker></defs><defs><marker orient="auto" markerHeight="18" markerWidth="18" refY="9" refX="18" id="ONLY_ONE_END"><path d="M3,0 L3,18 M9,0 L9,18" fill="none" stroke="gray"/></marker></defs><defs><marker orient="auto" markerHeight="18" markerWidth="30" refY="9" refX="0" id="ZERO_OR_ONE_START"><circle r="6" cy="9" cx="21" fill="white" stroke="gray"/><path d="M9,0 L9,18" fill="none" stroke="gray"/></marker></defs><defs><marker orient="auto" markerHeight="18" markerWidth="30" refY="9" refX="30" id="ZERO_OR_ONE_END"><circle r="6" cy="9" cx="9" fill="white" stroke="gray"/><path d="M21,0 L21,18" fill="none" stroke="gray"/></marker></defs><defs><marker orient="auto" markerHeight="36" markerWidth="45" refY="18" refX="18" id="ONE_OR_MORE_START"><path d="M0,18 Q 18,0 36,18 Q 18,36 0,18 M42,9 L42,27" fill="none" stroke="gray"/></marker></defs><defs><marker orient="auto" markerHeight="36" markerWidth="45" refY="18" refX="27" id="ONE_OR_MORE_END"><path d="M3,9 L3,27 M9,18 Q27,0 45,18 Q27,36 9,18" fill="none" stroke="gray"/></marker></defs><defs><marker orient="auto" markerHeight="36" markerWidth="57" refY="18" refX="18" id="ZERO_OR_MORE_START"><circle r="6" cy="18" cx="48" fill="white" stroke="gray"/><path d="M0,18 Q18,0 36,18 Q18,36 0,18" fill="none" stroke="gray"/></marker></defs><defs><marker orient="auto" markerHeight="36" markerWidth="57" refY="18" refX="39" id="ZERO_OR_MORE_END"><circle r="6" cy="18" cx="9" fill="white" stroke="gray"/><path d="M21,18 Q39,0 57,18 Q39,36 21,18" fill="none" stroke="gray"/></marker></defs><path style="stroke: gray; fill: none;" marker-start="url(#ONLY_ONE_START)" marker-end="url(#ZERO_OR_MORE_END)" d="M92.484,132L92.484,140.333C92.484,148.667,92.484,165.333,92.484,182C92.484,198.667,92.484,215.333,92.484,223.667L92.484,232" class="er relationshipLine"/><path style="stroke: gray; fill: none;" marker-start="url(#ONLY_ONE_START)" marker-end="url(#ONE_OR_MORE_END)" d="M92.484,344L92.484,352.333C92.484,360.667,92.484,377.333,102.315,395.057C112.146,412.78,131.809,431.56,141.64,440.951L151.471,450.341" class="er relationshipLine"/><path style="stroke: gray; fill: none;" marker-start="url(#ONLY_ONE_START)" marker-end="url(#ZERO_OR_MORE_END)" d="M337.473,344L337.473,352.333C337.473,360.667,337.473,377.333,327.642,395.057C317.811,412.78,298.148,431.56,288.317,440.951L278.486,450.341" class="er relationshipLine"/><g transform="translate(25.89453125,20 )" id="entity-Customer-7db3a251-ee0f-5d85-b53f-42db636cc6f9"><rect height="112" width="133.1796875" y="0" x="0" class="er entityBox"/><text style="dominant-baseline: middle; text-anchor: middle; font-size: 12px;" transform="translate(66.58984375,12)" y="0" x="0" id="text-entity-Customer-7db3a251-ee0f-5d85-b53f-42db636cc6f9" class="er entityLabel">Customer</text><rect height="22" width="51.6328125" y="24" x="0" class="er attributeBoxOdd"/><text style="dominant-baseline: middle; font-size: 10.2px;" transform="translate(5,35)" y="0" x="0" id="text-entity-Customer-7db3a251-ee0f-5d85-b53f-42db636cc6f9-attr-1-type" class="er entityLabel">int</text><rect height="22" width="59.984375" y="24" x="51.6328125" class="er attributeBoxOdd"/><text style="dominant-baseline: middle; font-size: 10.2px;" transform="translate(56.6328125,35)" y="0" x="0" id="text-entity-Customer-7db3a251-ee0f-5d85-b53f-42db636cc6f9-attr-1-name" class="er entityLabel">id</text><rect height="22" width="21.5625" y="24" x="111.6171875" class="er attributeBoxOdd"/><text style="dominant-baseline: middle; font-size: 10.2px;" transform="translate(116.6171875,35)" y="0" x="0" id="text-entity-Customer-7db3a251-ee0f-5d85-b53f-42db636cc6f9-attr-1-key" class="er entityLabel">PK</text><rect height="22" width="51.6328125" y="46" x="0" class="er attributeBoxEven"/><text style="dominant-baseline: middle; font-size: 10.2px;" transform="translate(5,57)" y="0" x="0" id="text-entity-Customer-7db3a251-ee0f-5d85-b53f-42db636cc6f9-attr-2-type" class="er entityLabel">string</text><rect height="22" width="59.984375" y="46" x="51.6328125" class="er attributeBoxEven"/><text style="dominant-baseline: middle; font-size: 10.2px;" transform="translate(56.6328125,57)" y="0" x="0" id="text-entity-Customer-7db3a251-ee0f-5d85-b53f-42db636cc6f9-attr-2-name" class="er entityLabel">name</text><rect height="22" width="21.5625" y="46" x="111.6171875" class="er attributeBoxEven"/><text style="dominant-baseline: middle; font-size: 10.2px;" transform="translate(116.6171875,57)" y="0" x="0" id="text-entity-Customer-7db3a251-ee0f-5d85-b53f-42db636cc6f9-attr-2-key" class="er entityLabel"/><rect height="22" width="51.6328125" y="68" x="0" class="er attributeBoxOdd"/><text style="dominant-baseline: middle; font-size: 10.2px;" transform="translate(5,79)" y="0" x="0" id="text-entity-Customer-7db3a251-ee0f-5d85-b53f-42db636cc6f9-attr-3-type" class="er entityLabel">string</text><rect height="22" width="59.984375" y="68" x="51.6328125" class="er attributeBoxOdd"/><text style="dominant-baseline: middle; font-size: 10.2px;" transform="translate(56.6328125,79)" y="0" x="0" id="text-entity-Customer-7db3a251-ee0f-5d85-b53f-42db636cc6f9-attr-3-name" class="er entityLabel">email</text><rect height="22" width="21.5625" y="68" x="111.6171875" class="er attributeBoxOdd"/><text style="dominant-baseline: middle; font-size: 10.2px;" transform="translate(116.6171875,79)" y="0" x="0" id="text-entity-Customer-7db3a251-ee0f-5d85-b53f-42db636cc6f9-attr-3-key" class="er entityLabel"/><rect height="22" width="51.6328125" y="90" x="0" class="er attributeBoxEven"/><text style="dominant-baseline: middle; font-size: 10.2px;" transform="translate(5,101)" y="0" x="0" id="text-entity-Customer-7db3a251-ee0f-5d85-b53f-42db636cc6f9-attr-4-type" class="er entityLabel">datetime</text><rect height="22" width="59.984375" y="90" x="51.6328125" class="er attributeBoxEven"/><text style="dominant-baseline: middle; font-size: 10.2px;" transform="translate(56.6328125,101)" y="0" x="0" id="text-entity-Customer-7db3a251-ee0f-5d85-b53f-42db636cc6f9-attr-4-name" class="er entityLabel">created_at</text><rect height="22" width="21.5625" y="90" x="111.6171875" class="er attributeBoxEven"/><text style="dominant-baseline: middle; font-size: 10.2px;" transform="translate(116.6171875,101)" y="0" x="0" id="text-entity-Customer-7db3a251-ee0f-5d85-b53f-42db636cc6f9-attr-4-key" class="er entityLabel"/></g><g transform="translate(20,232 )" id="entity-Order-3ec22774-e93b-529c-bc12-1dfdb28f8e64"><rect height="112" width="144.96875" y="0" x="0" class="er entityBox"/><text style="dominant-baseline: middle; text-anchor: middle; font-size: 12px;" transform="translate(72.484375,12)" y="0" x="0" id="text-entity-Order-3ec22774-e93b-529c-bc12-1dfdb28f8e64" class="er entityLabel">Order</text><rect height="22" width="51.6328125" y="24" x="0" class="er attributeBoxOdd"/><text style="dominant-baseline: middle; font-size: 10.2px;" transform="translate(5,35)" y="0" x="0" id="text-entity-Order-3ec22774-e93b-529c-bc12-1dfdb28f8e64-attr-1-type" class="er entityLabel">int</text><rect height="22" width="71.7734375" y="24" x="51.6328125" class="er attributeBoxOdd"/><text style="dominant-baseline: middle; font-size: 10.2px;" transform="translate(56.6328125,35)" y="0" x="0" id="text-entity-Order-3ec22774-e93b-529c-bc12-1dfdb28f8e64-attr-1-name" class="er entityLabel">id</text><rect height="22" width="21.5625" y="24" x="123.40625" class="er attributeBoxOdd"/><text style="dominant-baseline: middle; font-size: 10.2px;" transform="translate(128.40625,35)" y="0" x="0" id="text-entity-Order-3ec22774-e93b-529c-bc12-1dfdb28f8e64-attr-1-key" class="er entityLabel">PK</text><rect height="22" width="51.6328125" y="46" x="0" class="er attributeBoxEven"/><text style="dominant-baseline: middle; font-size: 10.2px;" transform="translate(5,57)" y="0" x="0" id="text-entity-Order-3ec22774-e93b-529c-bc12-1dfdb28f8e64-attr-2-type" class="er entityLabel">int</text><rect height="22" width="71.7734375" y="46" x="51.6328125" class="er attributeBoxEven"/><text style="dominant-baseline: middle; font-size: 10.2px;" transform="translate(56.6328125,57)" y="0" x="0" id="text-entity-Order-3ec22774-e93b-529c-bc12-1dfdb28f8e64-attr-2-name" class="er entityLabel">customer_id</text><rect height="22" width="21.5625" y="46" x="123.40625" class="er attributeBoxEven"/><text style="dominant-baseline: middle; font-size: 10.2px;" transform="translate(128.40625,57)" y="0" x="0" id="text-entity-Order-3ec22774-e93b-529c-bc12-1dfdb28f8e64-attr-2-key" class="er entityLabel">FK</text><rect height="22" width="51.6328125" y="68" x="0" class="er attributeBoxOdd"/><text style="dominant-baseline: middle; font-size: 10.2px;" transform="translate(5,79)" y="0" x="0" id="text-entity-Order-3ec22774-e93b-529c-bc12-1dfdb28f8e64-attr-3-type" class="er entityLabel">datetime</text><rect height="22" width="71.7734375" y="68" x="51.6328125" class="er attributeBoxOdd"/><text style="dominant-baseline: middle; font-size: 10.2px;" transform="translate(56.6328125,79)" y="0" x="0" id="text-entity-Order-3ec22774-e93b-529c-bc12-1dfdb28f8e64-attr-3-name" class="er entityLabel">order_date</text><rect height="22" width="21.5625" y="68" x="123.40625" class="er attributeBoxOdd"/><text style="dominant-baseline: middle; font-size: 10.2px;" transform="translate(128.40625,79)" y="0" x="0" id="text-entity-Order-3ec22774-e93b-529c-bc12-1dfdb28f8e64-attr-3-key" class="er entityLabel"/><rect height="22" width="51.6328125" y="90" x="0" class="er attributeBoxEven"/><text style="dominant-baseline: middle; font-size: 10.2px;" transform="translate(5,101)" y="0" x="0" id="text-entity-Order-3ec22774-e93b-529c-bc12-1dfdb28f8e64-attr-4-type" class="er entityLabel">decimal</text><rect height="22" width="71.7734375" y="90" x="51.6328125" class="er attributeBoxEven"/><text style="dominant-baseline: middle; font-size: 10.2px;" transform="translate(56.6328125,101)" y="0" x="0" id="text-entity-Order-3ec22774-e93b-529c-bc12-1dfdb28f8e64-attr-4-name" class="er entityLabel">total_amount</text><rect height="22" width="21.5625" y="90" x="123.40625" class="er attributeBoxEven"/><text style="dominant-baseline: middle; font-size: 10.2px;" transform="translate(128.40625,101)" y="0" x="0" id="text-entity-Order-3ec22774-e93b-529c-bc12-1dfdb28f8e64-attr-4-key" class="er entityLabel"/></g><g transform="translate(151.470703125,444 )" id="entity-LineItem-fc622959-a7c7-5d07-afd9-b340482841fe"><rect height="134" width="127.015625" y="0" x="0" class="er entityBox"/><text style="dominant-baseline: middle; text-anchor: middle; font-size: 12px;" transform="translate(63.5078125,12)" y="0" x="0" id="text-entity-LineItem-fc622959-a7c7-5d07-afd9-b340482841fe" class="er entityLabel">LineItem</text><rect height="22" width="46.0390625" y="24" x="0" class="er attributeBoxOdd"/><text style="dominant-baseline: middle; font-size: 10.2px;" transform="translate(5,35)" y="0" x="0" id="text-entity-LineItem-fc622959-a7c7-5d07-afd9-b340482841fe-attr-1-type" class="er entityLabel">int</text><rect height="22" width="59.4140625" y="24" x="46.0390625" class="er attributeBoxOdd"/><text style="dominant-baseline: middle; font-size: 10.2px;" transform="translate(51.0390625,35)" y="0" x="0" id="text-entity-LineItem-fc622959-a7c7-5d07-afd9-b340482841fe-attr-1-name" class="er entityLabel">id</text><rect height="22" width="21.5625" y="24" x="105.453125" class="er attributeBoxOdd"/><text style="dominant-baseline: middle; font-size: 10.2px;" transform="translate(110.453125,35)" y="0" x="0" id="text-entity-LineItem-fc622959-a7c7-5d07-afd9-b340482841fe-attr-1-key" class="er entityLabel">PK</text><rect height="22" width="46.0390625" y="46" x="0" class="er attributeBoxEven"/><text style="dominant-baseline: middle; font-size: 10.2px;" transform="translate(5,57)" y="0" x="0" id="text-entity-LineItem-fc622959-a7c7-5d07-afd9-b340482841fe-attr-2-type" class="er entityLabel">int</text><rect height="22" width="59.4140625" y="46" x="46.0390625" class="er attributeBoxEven"/><text style="dominant-baseline: middle; font-size: 10.2px;" transform="translate(51.0390625,57)" y="0" x="0" id="text-entity-LineItem-fc622959-a7c7-5d07-afd9-b340482841fe-attr-2-name" class="er entityLabel">order_id</text><rect height="22" width="21.5625" y="46" x="105.453125" class="er attributeBoxEven"/><text style="dominant-baseline: middle; font-size: 10.2px;" transform="translate(110.453125,57)" y="0" x="0" id="text-entity-LineItem-fc622959-a7c7-5d07-afd9-b340482841fe-attr-2-key" class="er entityLabel">FK</text><rect height="22" width="46.0390625" y="68" x="0" class="er attributeBoxOdd"/><text style="dominant-baseline: middle; font-size: 10.2px;" transform="translate(5,79)" y="0" x="0" id="text-entity-LineItem-fc622959-a7c7-5d07-afd9-b340482841fe-attr-3-type" class="er entityLabel">int</text><rect height="22" width="59.4140625" y="68" x="46.0390625" class="er attributeBoxOdd"/><text style="dominant-baseline: middle; font-size: 10.2px;" transform="translate(51.0390625,79)" y="0" x="0" id="text-entity-LineItem-fc622959-a7c7-5d07-afd9-b340482841fe-attr-3-name" class="er entityLabel">product_id</text><rect height="22" width="21.5625" y="68" x="105.453125" class="er attributeBoxOdd"/><text style="dominant-baseline: middle; font-size: 10.2px;" transform="translate(110.453125,79)" y="0" x="0" id="text-entity-LineItem-fc622959-a7c7-5d07-afd9-b340482841fe-attr-3-key" class="er entityLabel">FK</text><rect height="22" width="46.0390625" y="90" x="0" class="er attributeBoxEven"/><text style="dominant-baseline: middle; font-size: 10.2px;" transform="translate(5,101)" y="0" x="0" id="text-entity-LineItem-fc622959-a7c7-5d07-afd9-b340482841fe-attr-4-type" class="er entityLabel">int</text><rect height="22" width="59.4140625" y="90" x="46.0390625" class="er attributeBoxEven"/><text style="dominant-baseline: middle; font-size: 10.2px;" transform="translate(51.0390625,101)" y="0" x="0" id="text-entity-LineItem-fc622959-a7c7-5d07-afd9-b340482841fe-attr-4-name" class="er entityLabel">quantity</text><rect height="22" width="21.5625" y="90" x="105.453125" class="er attributeBoxEven"/><text style="dominant-baseline: middle; font-size: 10.2px;" transform="translate(110.453125,101)" y="0" x="0" id="text-entity-LineItem-fc622959-a7c7-5d07-afd9-b340482841fe-attr-4-key" class="er entityLabel"/><rect height="22" width="46.0390625" y="112" x="0" class="er attributeBoxOdd"/><text style="dominant-baseline: middle; font-size: 10.2px;" transform="translate(5,123)" y="0" x="0" id="text-entity-LineItem-fc622959-a7c7-5d07-afd9-b340482841fe-attr-5-type" class="er entityLabel">decimal</text><rect height="22" width="59.4140625" y="112" x="46.0390625" class="er attributeBoxOdd"/><text style="dominant-baseline: middle; font-size: 10.2px;" transform="translate(51.0390625,123)" y="0" x="0" id="text-entity-LineItem-fc622959-a7c7-5d07-afd9-b340482841fe-attr-5-name" class="er entityLabel">unit_price</text><rect height="22" width="21.5625" y="112" x="105.453125" class="er attributeBoxOdd"/><text style="dominant-baseline: middle; font-size: 10.2px;" transform="translate(110.453125,123)" y="0" x="0" id="text-entity-LineItem-fc622959-a7c7-5d07-afd9-b340482841fe-attr-5-key" class="er entityLabel"/></g><g transform="translate(264.96875,232 )" id="entity-Product-8913f459-c6e1-5923-8b2e-55129fac4b99"><rect height="112" width="145.0078125" y="0" x="0" class="er entityBox"/><text style="dominant-baseline: middle; text-anchor: middle; font-size: 12px;" transform="translate(72.50390625,12)" y="0" x="0" id="text-entity-Product-8913f459-c6e1-5923-8b2e-55129fac4b99" class="er entityLabel">Product</text><rect height="22" width="46.0390625" y="24" x="0" class="er attributeBoxOdd"/><text style="dominant-baseline: middle; font-size: 10.2px;" transform="translate(5,35)" y="0" x="0" id="text-entity-Product-8913f459-c6e1-5923-8b2e-55129fac4b99-attr-1-type" class="er entityLabel">int</text><rect height="22" width="77.40625" y="24" x="46.0390625" class="er attributeBoxOdd"/><text style="dominant-baseline: middle; font-size: 10.2px;" transform="translate(51.0390625,35)" y="0" x="0" id="text-entity-Product-8913f459-c6e1-5923-8b2e-55129fac4b99-attr-1-name" class="er entityLabel">id</text><rect height="22" width="21.5625" y="24" x="123.4453125" class="er attributeBoxOdd"/><text style="dominant-baseline: middle; font-size: 10.2px;" transform="translate(128.4453125,35)" y="0" x="0" id="text-entity-Product-8913f459-c6e1-5923-8b2e-55129fac4b99-attr-1-key" class="er entityLabel">PK</text><rect height="22" width="46.0390625" y="46" x="0" class="er attributeBoxEven"/><text style="dominant-baseline: middle; font-size: 10.2px;" transform="translate(5,57)" y="0" x="0" id="text-entity-Product-8913f459-c6e1-5923-8b2e-55129fac4b99-attr-2-type" class="er entityLabel">string</text><rect height="22" width="77.40625" y="46" x="46.0390625" class="er attributeBoxEven"/><text style="dominant-baseline: middle; font-size: 10.2px;" transform="translate(51.0390625,57)" y="0" x="0" id="text-entity-Product-8913f459-c6e1-5923-8b2e-55129fac4b99-attr-2-name" class="er entityLabel">name</text><rect height="22" width="21.5625" y="46" x="123.4453125" class="er attributeBoxEven"/><text style="dominant-baseline: middle; font-size: 10.2px;" transform="translate(128.4453125,57)" y="0" x="0" id="text-entity-Product-8913f459-c6e1-5923-8b2e-55129fac4b99-attr-2-key" class="er entityLabel"/><rect height="22" width="46.0390625" y="68" x="0" class="er attributeBoxOdd"/><text style="dominant-baseline: middle; font-size: 10.2px;" transform="translate(5,79)" y="0" x="0" id="text-entity-Product-8913f459-c6e1-5923-8b2e-55129fac4b99-attr-3-type" class="er entityLabel">decimal</text><rect height="22" width="77.40625" y="68" x="46.0390625" class="er attributeBoxOdd"/><text style="dominant-baseline: middle; font-size: 10.2px;" transform="translate(51.0390625,79)" y="0" x="0" id="text-entity-Product-8913f459-c6e1-5923-8b2e-55129fac4b99-attr-3-name" class="er entityLabel">price</text><rect height="22" width="21.5625" y="68" x="123.4453125" class="er attributeBoxOdd"/><text style="dominant-baseline: middle; font-size: 10.2px;" transform="translate(128.4453125,79)" y="0" x="0" id="text-entity-Product-8913f459-c6e1-5923-8b2e-55129fac4b99-attr-3-key" class="er entityLabel"/><rect height="22" width="46.0390625" y="90" x="0" class="er attributeBoxEven"/><text style="dominant-baseline: middle; font-size: 10.2px;" transform="translate(5,101)" y="0" x="0" id="text-entity-Product-8913f459-c6e1-5923-8b2e-55129fac4b99-attr-4-type" class="er entityLabel">int</text><rect height="22" width="77.40625" y="90" x="46.0390625" class="er attributeBoxEven"/><text style="dominant-baseline: middle; font-size: 10.2px;" transform="translate(51.0390625,101)" y="0" x="0" id="text-entity-Product-8913f459-c6e1-5923-8b2e-55129fac4b99-attr-4-name" class="er entityLabel">stock_quantity</text><rect height="22" width="21.5625" y="90" x="123.4453125" class="er attributeBoxEven"/><text style="dominant-baseline: middle; font-size: 10.2px;" transform="translate(128.4453125,101)" y="0" x="0" id="text-entity-Product-8913f459-c6e1-5923-8b2e-55129fac4b99-attr-4-key" class="er entityLabel"/></g><rect height="14" width="33.875" y="175" x="75.54650115966797" class="er relationshipLabelBox"/><text style="text-anchor: middle; dominant-baseline: middle; font-size: 12px;" y="182" x="92.48400115966797" id="rel1" class="er relationshipLabel">places</text><rect height="14" width="44.8359375" y="397.1456298828125" x="85.67369079589844" class="er relationshipLabelBox"/><text style="text-anchor: middle; dominant-baseline: middle; font-size: 12px;" y="404.1456298828125" x="108.09165954589844" id="rel2" class="er relationshipLabel">contains</text><rect height="14" width="42.234375" y="397.1456298828125" x="300.7481384277344" class="er relationshipLabelBox"/><text style="text-anchor: middle; dominant-baseline: middle; font-size: 12px;" y="404.1456298828125" x="321.8653259277344" id="rel3" class="er relationshipLabel">ordered</text></svg>