<svg aria-roledescription="flowchart-v2" role="graphics-document document" viewBox="-8 -8 367.677734375 686.7890625" style="max-width: 367.678px; background-color: transparent;" xmlns:xlink="http://www.w3.org/1999/xlink" xmlns="http://www.w3.org/2000/svg" width="100%" id="my-svg"><style>#my-svg{font-family:"trebuchet ms",verdana,arial,sans-serif;font-size:16px;fill:#333;}#my-svg .error-icon{fill:#552222;}#my-svg .error-text{fill:#552222;stroke:#552222;}#my-svg .edge-thickness-normal{stroke-width:2px;}#my-svg .edge-thickness-thick{stroke-width:3.5px;}#my-svg .edge-pattern-solid{stroke-dasharray:0;}#my-svg .edge-pattern-dashed{stroke-dasharray:3;}#my-svg .edge-pattern-dotted{stroke-dasharray:2;}#my-svg .marker{fill:#333333;stroke:#333333;}#my-svg .marker.cross{stroke:#333333;}#my-svg svg{font-family:"trebuchet ms",verdana,arial,sans-serif;font-size:16px;}#my-svg .label{font-family:"trebuchet ms",verdana,arial,sans-serif;color:#333;}#my-svg .cluster-label text{fill:#333;}#my-svg .cluster-label span,#my-svg p{color:#333;}#my-svg .label text,#my-svg span,#my-svg p{fill:#333;color:#333;}#my-svg .node rect,#my-svg .node circle,#my-svg .node ellipse,#my-svg .node polygon,#my-svg .node path{fill:#ECECFF;stroke:#9370DB;stroke-width:1px;}#my-svg .flowchart-label text{text-anchor:middle;}#my-svg .node .katex path{fill:#000;stroke:#000;stroke-width:1px;}#my-svg .node .label{text-align:center;}#my-svg .node.clickable{cursor:pointer;}#my-svg .arrowheadPath{fill:#333333;}#my-svg .edgePath .path{stroke:#333333;stroke-width:2.0px;}#my-svg .flowchart-link{stroke:#333333;fill:none;}#my-svg .edgeLabel{background-color:#e8e8e8;text-align:center;}#my-svg .edgeLabel rect{opacity:0.5;background-color:#e8e8e8;fill:#e8e8e8;}#my-svg .labelBkg{background-color:rgba(232, 232, 232, 0.5);}#my-svg .cluster rect{fill:#ffffde;stroke:#aaaa33;stroke-width:1px;}#my-svg .cluster text{fill:#333;}#my-svg .cluster span,#my-svg p{color:#333;}#my-svg div.mermaidTooltip{position:absolute;text-align:center;max-width:200px;padding:2px;font-family:"trebuchet ms",verdana,arial,sans-serif;font-size:12px;background:hsl(80, 100%, 96.2745098039%);border:1px solid #aaaa33;border-radius:2px;pointer-events:none;z-index:100;}#my-svg .flowchartTitleText{text-anchor:middle;font-size:18px;fill:#333;}#my-svg :root{--mermaid-font-family:"trebuchet ms",verdana,arial,sans-serif;}</style><g><marker orient="auto" markerHeight="12" markerWidth="12" markerUnits="userSpaceOnUse" refY="5" refX="6" viewBox="0 0 10 10" class="marker flowchart" id="my-svg_flowchart-pointEnd"><path style="stroke-width: 1; stroke-dasharray: 1, 0;" class="arrowMarkerPath" d="M 0 0 L 10 5 L 0 10 z"/></marker><marker orient="auto" markerHeight="12" markerWidth="12" markerUnits="userSpaceOnUse" refY="5" refX="4.5" viewBox="0 0 10 10" class="marker flowchart" id="my-svg_flowchart-pointStart"><path style="stroke-width: 1; stroke-dasharray: 1, 0;" class="arrowMarkerPath" d="M 0 5 L 10 10 L 10 0 z"/></marker><marker orient="auto" markerHeight="11" markerWidth="11" markerUnits="userSpaceOnUse" refY="5" refX="11" viewBox="0 0 10 10" class="marker flowchart" id="my-svg_flowchart-circleEnd"><circle style="stroke-width: 1; stroke-dasharray: 1, 0;" class="arrowMarkerPath" r="5" cy="5" cx="5"/></marker><marker orient="auto" markerHeight="11" markerWidth="11" markerUnits="userSpaceOnUse" refY="5" refX="-1" viewBox="0 0 10 10" class="marker flowchart" id="my-svg_flowchart-circleStart"><circle style="stroke-width: 1; stroke-dasharray: 1, 0;" class="arrowMarkerPath" r="5" cy="5" cx="5"/></marker><marker orient="auto" markerHeight="11" markerWidth="11" markerUnits="userSpaceOnUse" refY="5.2" refX="12" viewBox="0 0 11 11" class="marker cross flowchart" id="my-svg_flowchart-crossEnd"><path style="stroke-width: 2; stroke-dasharray: 1, 0;" class="arrowMarkerPath" d="M 1,1 l 9,9 M 10,1 l -9,9"/></marker><marker orient="auto" markerHeight="11" markerWidth="11" markerUnits="userSpaceOnUse" refY="5.2" refX="-1" viewBox="0 0 11 11" class="marker cross flowchart" id="my-svg_flowchart-crossStart"><path style="stroke-width: 2; stroke-dasharray: 1, 0;" class="arrowMarkerPath" d="M 1,1 l 9,9 M 10,1 l -9,9"/></marker><g class="root"><g class="clusters"/><g class="edgePaths"><path marker-end="url(#my-svg_flowchart-pointEnd)" style="fill:none;" class="edge-thickness-normal edge-pattern-solid flowchart-link LS-A LE-B" id="L-A-B-0" d="M178.254,33.5L178.254,37.667C178.254,41.833,178.254,50.167,178.32,57.7C178.386,65.234,178.518,71.967,178.584,75.334L178.65,78.701"/><path marker-end="url(#my-svg_flowchart-pointEnd)" style="fill:none;" class="edge-thickness-normal edge-pattern-solid flowchart-link LS-B LE-C" id="L-B-C-0" d="M152.495,199.194L146.456,209.195C140.417,219.197,128.339,239.2,122.301,254.027C116.262,268.853,116.262,278.503,116.262,283.328L116.262,288.153"/><path marker-end="url(#my-svg_flowchart-pointEnd)" style="fill:none;" class="edge-thickness-normal edge-pattern-solid flowchart-link LS-B LE-D" id="L-B-D-0" d="M217.317,186.89L231.783,198.943C246.25,210.995,275.182,235.099,289.649,255.651C304.115,276.203,304.115,293.203,304.115,308.661C304.115,324.12,304.115,338.036,304.115,354.514C304.115,370.992,304.115,390.032,304.115,399.551L304.115,409.071"/><path marker-end="url(#my-svg_flowchart-pointEnd)" style="fill:none;" class="edge-thickness-normal edge-pattern-solid flowchart-link LS-C LE-E" id="L-C-E-0" d="M98.375,326.953L93.925,331.12C89.476,335.286,80.577,343.62,76.193,351.153C71.81,358.687,71.942,365.42,72.008,368.787L72.074,372.154"/><path marker-end="url(#my-svg_flowchart-pointEnd)" style="fill:none;" class="edge-thickness-normal edge-pattern-solid flowchart-link LS-E LE-F" id="L-E-F-0" d="M62.039,475.65L60.252,482.965C58.465,490.28,54.89,504.909,53.103,517.049C51.316,529.189,51.316,538.839,51.316,543.664L51.316,548.489"/><path marker-end="url(#my-svg_flowchart-pointEnd)" style="fill:none;" class="edge-thickness-normal edge-pattern-solid flowchart-link LS-E LE-G" id="L-E-G-0" d="M94.896,463.071L101.671,472.482C108.446,481.894,121.997,500.716,133.181,515.171C144.365,529.626,153.182,539.712,157.591,544.756L162,549.799"/><path marker-end="url(#my-svg_flowchart-pointEnd)" style="fill:none;" class="edge-thickness-normal edge-pattern-solid flowchart-link LS-D LE-H" id="L-D-H-0" d="M304.115,447.871L304.115,459.816C304.115,471.76,304.115,495.65,304.115,512.419C304.115,529.189,304.115,538.839,304.115,543.664L304.115,548.489"/><path marker-end="url(#my-svg_flowchart-pointEnd)" style="fill:none;" class="edge-thickness-normal edge-pattern-solid flowchart-link LS-F LE-I" id="L-F-I-0" d="M51.316,587.289L51.316,591.456C51.316,595.622,51.316,603.956,68.198,613.675C85.08,623.394,118.843,634.499,135.724,640.051L152.606,645.603"/><path marker-end="url(#my-svg_flowchart-pointEnd)" style="fill:none;" class="edge-thickness-normal edge-pattern-solid flowchart-link LS-G LE-C" id="L-G-C-0" d="M188.146,553.789L190.878,548.081C193.609,542.372,199.072,530.956,201.804,510.511C204.535,490.066,204.535,460.594,204.535,432.663C204.535,404.732,204.535,378.342,196.524,361.359C188.513,344.375,172.49,336.797,164.479,333.008L156.468,329.219"/><path marker-end="url(#my-svg_flowchart-pointEnd)" style="fill:none;" class="edge-thickness-normal edge-pattern-solid flowchart-link LS-H LE-I" id="L-H-I-0" d="M304.115,587.289L304.115,591.456C304.115,595.622,304.115,603.956,287.412,613.663C270.709,623.37,237.304,634.451,220.601,639.992L203.898,645.533"/></g><g class="edgeLabels"><g class="edgeLabel"><g transform="translate(0, 0)" class="label"><rect height="0" width="0" ry="0" rx="0"/><text style=""><tspan class="row" x="0" dy="1em" xml:space="preserve"/></text></g></g><g transform="translate(116.26171875, 259.203125)" class="edgeLabel"><g transform="translate(-11.32421875, -9.25)" class="label"><rect height="18.50042152404785" width="22.64895248413086" ry="0" rx="0"/><text style=""><tspan class="row" x="0" dy="1em" xml:space="preserve">Yes</tspan></text></g></g><g transform="translate(304.115234375, 310.203125)" class="edgeLabel"><g transform="translate(-9.3984375, -9.25)" class="label"><rect height="18.50042152404785" width="18.79730224609375" ry="0" rx="0"/><text style=""><tspan class="row" x="0" dy="1em" xml:space="preserve">No</tspan></text></g></g><g class="edgeLabel"><g transform="translate(0, 0)" class="label"><rect height="0" width="0" ry="0" rx="0"/><text style=""><tspan class="row" x="0" dy="1em" xml:space="preserve"/></text></g></g><g transform="translate(51.31640625, 519.5390625)" class="edgeLabel"><g transform="translate(-11.32421875, -9.25)" class="label"><rect height="18.50042152404785" width="22.64895248413086" ry="0" rx="0"/><text style=""><tspan class="row" x="0" dy="1em" xml:space="preserve">Yes</tspan></text></g></g><g transform="translate(135.546875, 519.5390625)" class="edgeLabel"><g transform="translate(-9.3984375, -9.25)" class="label"><rect height="18.50042152404785" width="18.79730224609375" ry="0" rx="0"/><text style=""><tspan class="row" x="0" dy="1em" xml:space="preserve">No</tspan></text></g></g><g class="edgeLabel"><g transform="translate(0, 0)" class="label"><rect height="0" width="0" ry="0" rx="0"/><text style=""><tspan class="row" x="0" dy="1em" xml:space="preserve"/></text></g></g><g class="edgeLabel"><g transform="translate(0, 0)" class="label"><rect height="0" width="0" ry="0" rx="0"/><text style=""><tspan class="row" x="0" dy="1em" xml:space="preserve"/></text></g></g><g class="edgeLabel"><g transform="translate(0, 0)" class="label"><rect height="0" width="0" ry="0" rx="0"/><text style=""><tspan class="row" x="0" dy="1em" xml:space="preserve"/></text></g></g><g class="edgeLabel"><g transform="translate(0, 0)" class="label"><rect height="0" width="0" ry="0" rx="0"/><text style=""><tspan class="row" x="0" dy="1em" xml:space="preserve"/></text></g></g></g><g class="nodes"><g transform="translate(178.25390625, 16.75)" data-id="A" data-node="true" id="flowchart-A-0" class="node default default flowchart-label"><rect height="33.5" width="107.40625" y="-16.75" x="-53.703125" ry="0" rx="0" style="" class="basic label-container"/><g transform="translate(0, -9.25)" style="" class="label"><rect/><text style=""><tspan class="row" x="0" dy="1em" xml:space="preserve">Start Process</tspan></text></g></g><g transform="translate(178.25390625, 154.2265625)" data-id="B" data-node="true" id="flowchart-B-1" class="node default default flowchart-label"><polygon style="" transform="translate(-70.7265625,70.7265625)" class="label-container" points="70.7265625,0 141.453125,-70.7265625 70.7265625,-141.453125 0,-70.7265625"/><g transform="translate(0, -9.25)" style="" class="label"><rect/><text style=""><tspan class="row" x="0" dy="1em" xml:space="preserve">Is data valid?</tspan></text></g></g><g transform="translate(116.26171875, 310.203125)" data-id="C" data-node="true" id="flowchart-C-3" class="node default default flowchart-label"><rect height="33.5" width="105.3671875" y="-16.75" x="-52.68359375" ry="0" rx="0" style="" class="basic label-container"/><g transform="translate(0, -9.25)" style="" class="label"><rect/><text style=""><tspan class="row" x="0" dy="1em" xml:space="preserve">Process Data</tspan></text></g></g><g transform="translate(304.115234375, 431.12109375)" data-id="D" data-node="true" id="flowchart-D-5" class="node default default flowchart-label"><rect height="33.5" width="80.3515625" y="-16.75" x="-40.17578125" ry="0" rx="0" style="" class="basic label-container"/><g transform="translate(0, -9.25)" style="" class="label"><rect/><text style=""><tspan class="row" x="0" dy="1em" xml:space="preserve">Log Error</tspan></text></g></g><g transform="translate(71.677734375, 431.12109375)" data-id="E" data-node="true" id="flowchart-E-7" class="node default default flowchart-label"><polygon style="" transform="translate(-54.16796875,54.16796875)" class="label-container" points="54.16796875,0 108.3359375,-54.16796875 54.16796875,-108.3359375 0,-54.16796875"/><g transform="translate(0, -9.25)" style="" class="label"><rect/><text style=""><tspan class="row" x="0" dy="1em" xml:space="preserve">Success?</tspan></text></g></g><g transform="translate(51.31640625, 570.5390625)" data-id="F" data-node="true" id="flowchart-F-9" class="node default default flowchart-label"><rect height="33.5" width="102.6328125" y="-16.75" x="-51.31640625" ry="0" rx="0" style="" class="basic label-container"/><g transform="translate(0, -9.25)" style="" class="label"><rect/><text style=""><tspan class="row" x="0" dy="1em" xml:space="preserve">Save Results</tspan></text></g></g><g transform="translate(180.130859375, 570.5390625)" data-id="G" data-node="true" id="flowchart-G-11" class="node default default flowchart-label"><rect height="33.5" width="52.84375" y="-16.75" x="-26.421875" ry="0" rx="0" style="" class="basic label-container"/><g transform="translate(0, -9.25)" style="" class="label"><rect/><text style=""><tspan class="row" x="0" dy="1em" xml:space="preserve">Retry</tspan></text></g></g><g transform="translate(304.115234375, 570.5390625)" data-id="H" data-node="true" id="flowchart-H-13" class="node default default flowchart-label"><rect height="33.5" width="95.125" y="-16.75" x="-47.5625" ry="0" rx="0" style="" class="basic label-container"/><g transform="translate(0, -9.25)" style="" class="label"><rect/><text style=""><tspan class="row" x="0" dy="1em" xml:space="preserve">Notify User</tspan></text></g></g><g transform="translate(178.25390625, 654.0390625)" data-id="I" data-node="true" id="flowchart-I-15" class="node default default flowchart-label"><rect height="33.5" width="41.2265625" y="-16.75" x="-20.61328125" ry="0" rx="0" style="" class="basic label-container"/><g transform="translate(0, -9.25)" style="" class="label"><rect/><text style=""><tspan class="row" x="0" dy="1em" xml:space="preserve">End</tspan></text></g></g></g></g></g></svg>