<svg aria-roledescription="stateDiagram" role="graphics-document document" viewBox="-8 -8 378.369140625 529.5" style="max-width: 378.369px; background-color: transparent;" class="statediagram" xmlns:xlink="http://www.w3.org/1999/xlink" xmlns="http://www.w3.org/2000/svg" width="100%" id="my-svg"><style>#my-svg{font-family:"trebuchet ms",verdana,arial,sans-serif;font-size:16px;fill:#333;}#my-svg .error-icon{fill:#552222;}#my-svg .error-text{fill:#552222;stroke:#552222;}#my-svg .edge-thickness-normal{stroke-width:2px;}#my-svg .edge-thickness-thick{stroke-width:3.5px;}#my-svg .edge-pattern-solid{stroke-dasharray:0;}#my-svg .edge-pattern-dashed{stroke-dasharray:3;}#my-svg .edge-pattern-dotted{stroke-dasharray:2;}#my-svg .marker{fill:#333333;stroke:#333333;}#my-svg .marker.cross{stroke:#333333;}#my-svg svg{font-family:"trebuchet ms",verdana,arial,sans-serif;font-size:16px;}#my-svg defs #statediagram-barbEnd{fill:#333333;stroke:#333333;}#my-svg g.stateGroup text{fill:#9370DB;stroke:none;font-size:10px;}#my-svg g.stateGroup text{fill:#333;stroke:none;font-size:10px;}#my-svg g.stateGroup .state-title{font-weight:bolder;fill:#131300;}#my-svg g.stateGroup rect{fill:#ECECFF;stroke:#9370DB;}#my-svg g.stateGroup line{stroke:#333333;stroke-width:1;}#my-svg .transition{stroke:#333333;stroke-width:1;fill:none;}#my-svg .stateGroup .composit{fill:white;border-bottom:1px;}#my-svg .stateGroup .alt-composit{fill:#e0e0e0;border-bottom:1px;}#my-svg .state-note{stroke:#aaaa33;fill:#fff5ad;}#my-svg .state-note text{fill:black;stroke:none;font-size:10px;}#my-svg .stateLabel .box{stroke:none;stroke-width:0;fill:#ECECFF;opacity:0.5;}#my-svg .edgeLabel .label rect{fill:#ECECFF;opacity:0.5;}#my-svg .edgeLabel .label text{fill:#333;}#my-svg .label div .edgeLabel{color:#333;}#my-svg .stateLabel text{fill:#131300;font-size:10px;font-weight:bold;}#my-svg .node circle.state-start{fill:#333333;stroke:#333333;}#my-svg .node .fork-join{fill:#333333;stroke:#333333;}#my-svg .node circle.state-end{fill:#9370DB;stroke:white;stroke-width:1.5;}#my-svg .end-state-inner{fill:white;stroke-width:1.5;}#my-svg .node rect{fill:#ECECFF;stroke:#9370DB;stroke-width:1px;}#my-svg .node polygon{fill:#ECECFF;stroke:#9370DB;stroke-width:1px;}#my-svg #statediagram-barbEnd{fill:#333333;}#my-svg .statediagram-cluster rect{fill:#ECECFF;stroke:#9370DB;stroke-width:1px;}#my-svg .cluster-label,#my-svg .nodeLabel{color:#131300;}#my-svg .statediagram-cluster rect.outer{rx:5px;ry:5px;}#my-svg .statediagram-state .divider{stroke:#9370DB;}#my-svg .statediagram-state .title-state{rx:5px;ry:5px;}#my-svg .statediagram-cluster.statediagram-cluster .inner{fill:white;}#my-svg .statediagram-cluster.statediagram-cluster-alt .inner{fill:#f0f0f0;}#my-svg .statediagram-cluster .inner{rx:0;ry:0;}#my-svg .statediagram-state rect.basic{rx:5px;ry:5px;}#my-svg .statediagram-state rect.divider{stroke-dasharray:10,10;fill:#f0f0f0;}#my-svg .note-edge{stroke-dasharray:5;}#my-svg .statediagram-note rect{fill:#fff5ad;stroke:#aaaa33;stroke-width:1px;rx:0;ry:0;}#my-svg .statediagram-note rect{fill:#fff5ad;stroke:#aaaa33;stroke-width:1px;rx:0;ry:0;}#my-svg .statediagram-note text{fill:black;}#my-svg .statediagram-note .nodeLabel{color:black;}#my-svg .statediagram .edgeLabel{color:red;}#my-svg #dependencyStart,#my-svg #dependencyEnd{fill:#333333;stroke:#333333;stroke-width:1;}#my-svg .statediagramTitleText{text-anchor:middle;font-size:18px;fill:#333;}#my-svg :root{--mermaid-font-family:"trebuchet ms",verdana,arial,sans-serif;}</style><g><defs><marker orient="auto" markerUnits="strokeWidth" markerHeight="14" markerWidth="20" refY="7" refX="19" id="my-svg_statediagram-barbEnd"><path d="M 19,7 L9,13 L14,7 L9,1 Z"/></marker></defs><g class="root"><g class="clusters"/><g class="edgePaths"><path marker-end="url(#my-svg_statediagram-barbEnd)" style="fill:none" class="edge-thickness-normal transition" id="edge0" d="M260.781,22L260.781,26.167C260.781,30.333,260.781,38.667,260.781,47C260.781,55.333,260.781,63.667,260.781,67.833L260.781,72"/><path marker-end="url(#my-svg_statediagram-barbEnd)" style="fill:none" class="edge-thickness-normal transition" id="edge1" d="M239.875,96.572L220.641,103.768C201.408,110.965,162.94,125.357,143.706,138.262C124.473,151.167,124.473,162.583,124.473,168.292L124.473,174"/><path marker-end="url(#my-svg_statediagram-barbEnd)" style="fill:none" class="edge-thickness-normal transition" id="edge2" d="M101.838,207.5L94.124,213.208C86.41,218.917,70.982,230.333,66.319,241.75C61.656,253.167,67.757,264.583,70.808,270.292L73.859,276"/><path marker-end="url(#my-svg_statediagram-barbEnd)" style="fill:none" class="edge-thickness-normal transition" id="edge3" d="M102.26,276L108.889,270.292C115.517,264.583,128.774,253.167,133.437,241.75C138.101,230.333,134.17,218.917,132.205,213.208L130.239,207.5"/><path marker-end="url(#my-svg_statediagram-barbEnd)" style="fill:none" class="edge-thickness-normal transition" id="edge4" d="M82.811,309.5L82.811,315.208C82.811,320.917,82.811,332.333,82.811,343.75C82.811,355.167,82.811,366.583,82.811,372.292L82.811,378"/><path marker-end="url(#my-svg_statediagram-barbEnd)" style="fill:none" class="edge-thickness-normal transition" id="edge5" d="M82.811,411.5L82.811,417.208C82.811,422.917,82.811,434.333,98.999,446.778C115.187,459.222,147.563,472.694,163.751,479.431L179.939,486.167"/><path marker-end="url(#my-svg_statediagram-barbEnd)" style="fill:none" class="edge-thickness-normal transition" id="edge6" d="M151.196,207.5L160.303,213.208C169.411,218.917,187.625,230.333,199.783,241.75C211.941,253.167,218.043,264.583,221.093,270.292L224.144,276"/><path marker-end="url(#my-svg_statediagram-barbEnd)" style="fill:none" class="edge-thickness-normal transition" id="edge7" d="M242.189,276L245.287,270.292C248.386,264.583,254.584,253.167,257.682,238.958C260.781,224.75,260.781,207.75,260.781,190.75C260.781,173.75,260.781,156.75,260.781,142.542C260.781,128.333,260.781,116.917,260.781,111.208L260.781,105.5"/><path marker-end="url(#my-svg_statediagram-barbEnd)" style="fill:none" class="edge-thickness-normal transition" id="edge8" d="M230.807,486.167L246.995,479.431C263.183,472.694,295.559,459.222,311.747,443.986C327.936,428.75,327.936,411.75,327.936,394.75C327.936,377.75,327.936,360.75,327.936,343.75C327.936,326.75,327.936,309.75,327.936,292.75C327.936,275.75,327.936,258.75,327.936,241.75C327.936,224.75,327.936,207.75,327.936,190.75C327.936,173.75,327.936,156.75,320.228,142.396C312.52,128.042,297.104,116.335,289.396,110.481L281.688,104.627"/></g><g class="edgeLabels"><g class="edgeLabel"><g transform="translate(0, 0)" class="label"><rect height="0" width="0" ry="0" rx="0"/><text style=""><tspan class="row" x="0" dy="1em" xml:space="preserve"/></text></g></g><g transform="translate(124.47265625, 139.75)" class="edgeLabel"><g transform="translate(-17.50390625, -9.25)" class="label"><rect height="18.500272750854492" width="35.000518798828125" ry="0" rx="0"/><text style=""><tspan class="row" x="0" dy="1em" xml:space="preserve">Start</tspan></text></g></g><g transform="translate(55.5546875, 241.75)" class="edgeLabel"><g transform="translate(-47.5546875, -9.25)" class="label"><rect height="18.500272750854492" width="95.08734130859375" ry="0" rx="0"/><text style=""><tspan class="row" x="0" dy="1em" xml:space="preserve">Validate data</tspan></text></g></g><g transform="translate(142.03125, 241.75)" class="edgeLabel"><g transform="translate(-18.921875, -9.25)" class="label"><rect height="18.500272750854492" width="37.83649826049805" ry="0" rx="0"/><text style=""><tspan class="row" x="0" dy="1em" xml:space="preserve">Retry</tspan></text></g></g><g transform="translate(82.810546875, 343.75)" class="edgeLabel"><g transform="translate(-17.37109375, -9.25)" class="label"><rect height="18.500272750854492" width="34.73488998413086" ry="0" rx="0"/><text style=""><tspan class="row" x="0" dy="1em" xml:space="preserve">Valid</tspan></text></g></g><g transform="translate(82.810546875, 445.75)" class="edgeLabel"><g transform="translate(-26.98046875, -9.25)" class="label"><rect height="18.500272750854492" width="53.946109771728516" ry="0" rx="0"/><text style=""><tspan class="row" x="0" dy="1em" xml:space="preserve">Success</tspan></text></g></g><g transform="translate(205.83984375, 241.75)" class="edgeLabel"><g transform="translate(-24.88671875, -9.25)" class="label"><rect height="18.500272750854492" width="49.766361236572266" ry="0" rx="0"/><text style=""><tspan class="row" x="0" dy="1em" xml:space="preserve">Failure</tspan></text></g></g><g transform="translate(260.78125, 190.75)" class="edgeLabel"><g transform="translate(-19.46875, -9.25)" class="label"><rect height="18.500272750854492" width="38.93026351928711" ry="0" rx="0"/><text style=""><tspan class="row" x="0" dy="1em" xml:space="preserve">Reset</tspan></text></g></g><g transform="translate(327.935546875, 292.75)" class="edgeLabel"><g transform="translate(-34.43359375, -9.25)" class="label"><rect height="18.500272750854492" width="68.85257720947266" ry="0" rx="0"/><text style=""><tspan class="row" x="0" dy="1em" xml:space="preserve">Complete</tspan></text></g></g></g><g class="nodes"><g transform="translate(260.78125, 15)" data-id="root_start" data-node="true" id="state-root_start-0" class="node default"><circle height="14" width="14" r="7" class="state-start"/></g><g transform="translate(260.78125, 88.75)" data-id="Idle" data-node="true" id="state-Idle-8" class="node  statediagram-state undefined"><rect height="33.5" width="41.8125" y="-16.75" x="-20.90625" style="" class="basic label-container"/><g transform="translate(-13.40625, -9.25)" style="" class="label"><rect/><text style=""><tspan class="row" x="0" dy="1em" xml:space="preserve">Idle</tspan></text></g></g><g transform="translate(124.47265625, 190.75)" data-id="Processing" data-node="true" id="state-Processing-6" class="node  statediagram-state undefined"><rect height="33.5" width="88.9140625" y="-16.75" x="-44.45703125" style="" class="basic label-container"/><g transform="translate(-36.95703125, -9.25)" style="" class="label"><rect/><text style=""><tspan class="row" x="0" dy="1em" xml:space="preserve">Processing</tspan></text></g></g><g transform="translate(82.810546875, 292.75)" data-id="Validating" data-node="true" id="state-Validating-4" class="node  statediagram-state undefined"><rect height="33.5" width="85.828125" y="-16.75" x="-42.9140625" style="" class="basic label-container"/><g transform="translate(-35.4140625, -9.25)" style="" class="label"><rect/><text style=""><tspan class="row" x="0" dy="1em" xml:space="preserve">Validating</tspan></text></g></g><g transform="translate(82.810546875, 394.75)" data-id="Storing" data-node="true" id="state-Storing-5" class="node  statediagram-state undefined"><rect height="33.5" width="65.1796875" y="-16.75" x="-32.58984375" style="" class="basic label-container"/><g transform="translate(-25.08984375, -9.25)" style="" class="label"><rect/><text style=""><tspan class="row" x="0" dy="1em" xml:space="preserve">Storing</tspan></text></g></g><g transform="translate(205.373046875, 496.75)" data-id="Done" data-node="true" id="state-Done-8" class="node  statediagram-state undefined"><rect height="33.5" width="50.8671875" y="-16.75" x="-25.43359375" style="" class="basic label-container"/><g transform="translate(-17.93359375, -9.25)" style="" class="label"><rect/><text style=""><tspan class="row" x="0" dy="1em" xml:space="preserve">Done</tspan></text></g></g><g transform="translate(233.095703125, 292.75)" data-id="Error" data-node="true" id="state-Error-7" class="node  statediagram-state undefined"><rect height="33.5" width="50.8125" y="-16.75" x="-25.40625" style="" class="basic label-container"/><g transform="translate(-17.90625, -9.25)" style="" class="label"><rect/><text style=""><tspan class="row" x="0" dy="1em" xml:space="preserve">Error</tspan></text></g></g></g></g></g></svg>